<?xml version="1.0" encoding="utf-8"?>
<!-- Generator: Adobe Illustrator 19.2.1, SVG Export Plug-In . SVG Version: 6.00 Build 0)  -->
<svg version="1.1" id="Layer_1" xmlns="http://www.w3.org/2000/svg" xmlns:xlink="http://www.w3.org/1999/xlink" x="0px" y="0px"
	 viewBox="0 0 16 16" style="enable-background:new 0 0 16 16;" xml:space="preserve">
<style type="text/css">
	.st0{fill:#B3B3B3;}
</style>
<g>
	<g>
		<path class="st0" d="M12.1,3.2h-1.7V2.1c0-0.2-0.2-0.4-0.4-0.4c0,0,0,0,0,0c0,0,0,0,0,0H6h0h0c-0.2,0-0.4,0.2-0.4,0.4v1.1H3.9
			C3.4,3.2,3,3.5,3,4v0.6v0.8h0.7v8c0,0.5,0.4,0.9,0.9,0.9h6.8c0.5,0,0.9-0.4,0.9-0.9v-8H13V4.7V4C13,3.5,12.6,3.2,12.1,3.2z
			 M6.3,2.5h3.3v0.7H6.3V2.5z M11.5,13.5C11.5,13.5,11.4,13.5,11.5,13.5l-6.9,0.1c0,0-0.1,0-0.1-0.1v-8h6.9V13.5z M12.2,4.7H3.8V4
			c0,0,0-0.1,0.1-0.1h8.3c0,0,0.1,0,0.1,0.1L12.2,4.7L12.2,4.7z"/>
		<rect x="9.4" y="6.4" class="st0" width="0.8" height="6.5"/>
		<rect x="7.6" y="6.4" class="st0" width="0.8" height="6.5"/>
		<rect x="5.8" y="6.4" class="st0" width="0.8" height="6.5"/>
	</g>
</g>
</svg>
