<?xml version="1.0" encoding="utf-8"?>
<!-- Generator: Adobe Illustrator 19.2.1, SVG Export Plug-In . SVG Version: 6.00 Build 0)  -->
<svg version="1.1" id="Layer_1" xmlns="http://www.w3.org/2000/svg" xmlns:xlink="http://www.w3.org/1999/xlink" x="0px" y="0px"
	 viewBox="0 0 15 15" style="enable-background:new 0 0 15 15;" xml:space="preserve">
<style type="text/css">
	.st0{fill:#FFFFFF;}
</style>
<g>
	<g>
		<path class="st0" d="M13.9,0.5H1.1C0.9,0.5,0.7,0.8,0.7,1s0.2,0.5,0.4,0.5h1.4v12.6c0,0.1-0.3,0.3-0.1,0.3c0.1,0.1,0.1,0.1,0.2,0
			l1.5-1l1.5,1c0.1,0.1,0.3,0.1,0.4,0l1.5-1l1.6,1c0.1,0.1,0.3,0.1,0.4,0l1.6-1l1.6,1c0.1,0,0.1,0.1,0.2,0.1c0.1,0,0.1,0,0.2,0
			c0.1-0.1,0.2,0,0.2-0.2l0-12.8h0.8c0.2,0,0.4-0.3,0.4-0.5S14.1,0.5,13.9,0.5z M12.4,13.6l-1.2-0.9c-0.1-0.1-0.3-0.1-0.4,0l-1.6,1
			l-1.6-1c-0.1-0.1-0.3-0.1-0.4,0l-1.6,1l-1.6-1c-0.1-0.1,0.2-0.1,0.1,0l-0.7,0.8v-12h8.9L12.4,13.6z"/>
		<path class="st0" d="M4.2,6.5H8c0.2,0,0.4-0.3,0.4-0.5S8.2,5.5,8,5.5H4.2C4,5.5,3.9,5.8,3.9,6S4,6.5,4.2,6.5z"/>
		<path class="st0" d="M4.2,7.5H7c0.2,0,0.4-0.3,0.4-0.5S7.2,6.5,7,6.5H4.2C4,6.5,3.9,6.8,3.9,7S4,7.5,4.2,7.5z"/>
		<path class="st0" d="M9.8,6.2h0.9c0.2,0,0.4-0.2,0.4-0.4S11,5.5,10.8,5.5H9.8c-0.2,0-0.4,0.2-0.4,0.4S9.6,6.2,9.8,6.2z"/>
		<path class="st0" d="M9.8,7.5h0.9c0.2,0,0.4-0.2,0.4-0.4c0-0.2-0.2-0.4-0.4-0.4H9.8c-0.2,0-0.4,0.2-0.4,0.4
			C9.5,7.3,9.6,7.5,9.8,7.5z"/>
		<path class="st0" d="M4.2,3.5H8c0.2,0,0.4-0.3,0.4-0.5S8.2,2.5,8,2.5H4.2C4,2.5,3.9,2.8,3.9,3S4,3.5,4.2,3.5z"/>
		<path class="st0" d="M4.2,4.5H7c0.2,0,0.4-0.3,0.4-0.5S7.2,3.5,7,3.5H4.2C4,3.5,3.9,3.8,3.9,4C3.9,4.2,4,4.5,4.2,4.5z"/>
		<path class="st0" d="M9.8,3.3h0.9c0.2,0,0.4-0.2,0.4-0.4c0-0.2-0.2-0.4-0.4-0.4H9.8C9.7,2.6,9.5,2.8,9.5,3
			C9.5,3.2,9.6,3.3,9.8,3.3z"/>
		<path class="st0" d="M9.8,4.6h0.9c0.2,0,0.4-0.2,0.4-0.4S11,3.9,10.8,3.9H9.8C9.7,3.9,9.5,4,9.5,4.2S9.6,4.6,9.8,4.6z"/>
		<path class="st0" d="M4.2,9.5H8c0.2,0,0.4-0.3,0.4-0.5S8.2,8.5,8,8.5H4.2C4,8.5,3.9,8.8,3.9,9S4,9.5,4.2,9.5z"/>
		<path class="st0" d="M4.2,10.5H7c0.2,0,0.4-0.3,0.4-0.5S7.2,9.5,7,9.5H4.2C4,9.5,3.9,9.8,3.9,10S4,10.5,4.2,10.5z"/>
		<path class="st0" d="M9.8,9.1h0.9c0.2,0,0.4-0.2,0.4-0.4c0-0.2-0.2-0.4-0.4-0.4H9.8c-0.2,0-0.4,0.2-0.4,0.4C9.5,9,9.6,9.1,9.8,9.1
			z"/>
		<path class="st0" d="M9.8,10.4h0.9c0.2,0,0.4-0.2,0.4-0.4c0-0.2-0.2-0.4-0.4-0.4H9.8c-0.2,0-0.4,0.2-0.4,0.4
			C9.5,10.2,9.6,10.4,9.8,10.4z"/>
	</g>
</g>
</svg>
