<?xml version="1.0" encoding="utf-8"?>
<!-- Generator: Adobe Illustrator 19.2.1, SVG Export Plug-In . SVG Version: 6.00 Build 0)  -->
<svg version="1.1" id="Layer_1" xmlns="http://www.w3.org/2000/svg" xmlns:xlink="http://www.w3.org/1999/xlink" x="0px" y="0px"
	 viewBox="0 0 16 16" style="enable-background:new 0 0 16 16;" xml:space="preserve">
<style type="text/css">
	.st0{fill:#FFFFFF;}
</style>
<g>
	<g>
		<g>
			<path class="st0" d="M9.5,13.9L2.9,7.2c-1.3-1.3-1.3-3.5,0-4.8c1.6-1.6,3.8-1,4.8,0l5.8,5.9l-0.4,0.4L7.3,2.7
				c-0.8-0.9-2.7-1.3-4,0c-1.1,1.1-1.1,2.9,0,4l6.6,6.7c0.8,0.9,2.2,0.9,3,0c0.8-0.9,0.8-2.2,0-3L7.2,4.7c-0.5-0.5-1.4-0.5-2,0
				s-0.5,1.4,0,2l4.9,5l-0.4,0.4l-4.9-5c-0.8-0.8-0.8-2,0-2.8s2-0.8,2.8,0l5.7,5.7c1.4,1.4,0.7,3.2,0,3.8
				C12.4,14.8,10.6,15,9.5,13.9z"/>
		</g>
	</g>
</g>
</svg>
