<?xml version="1.0" encoding="utf-8"?>
<!-- Generator: Adobe Illustrator 19.2.1, SVG Export Plug-In . SVG Version: 6.00 Build 0)  -->
<svg version="1.1" id="Layer_1" xmlns="http://www.w3.org/2000/svg" xmlns:xlink="http://www.w3.org/1999/xlink" x="0px" y="0px"
	 viewBox="0 0 16 16" style="enable-background:new 0 0 16 16;" xml:space="preserve">
<style type="text/css">
	.st0{fill:#FFFFFF;}
</style>
<g>
	<path class="st0" d="M8.8,12.2H5.5l0.1-0.4l0.8-0.2c0.1,0,0.2-0.1,0.2-0.1c0.1-0.1,0.1-0.1,0.1-0.2l1.5-6.7c0-0.1,0-0.2,0-0.2
		c0-0.1-0.1-0.1-0.2-0.1L7.1,4.1l0.1-0.3h3.4l-0.1,0.3L9.8,4.3c-0.1,0-0.1,0-0.2,0.1c0,0-0.1,0-0.1,0.1c0,0-0.1,0.1-0.1,0.1
		c0,0-0.1,0.1-0.1,0.1l-1.5,6.7c0,0.1,0,0.2,0,0.2c0,0.1,0.1,0.1,0.2,0.1l0.9,0.2L8.8,12.2z"/>
</g>
</svg>
