<?xml version="1.0" encoding="utf-8"?>
<!-- Generator: Adobe Illustrator 19.2.1, SVG Export Plug-In . SVG Version: 6.00 Build 0)  -->
<svg version="1.1" id="Capa_1" xmlns="http://www.w3.org/2000/svg" xmlns:xlink="http://www.w3.org/1999/xlink" x="0px" y="0px"
	 viewBox="0 0 32 32" style="enable-background:new 0 0 32 32;" xml:space="preserve" fill="#AAA5B3">
<style type="text/css">
	.st0{fill:#FFFFFF;stroke:#ffffff;stroke-width:2;stroke-miterlimit:10;}
</style>
<g>
	<path d="M16,22c5,0,9-4.9,9-11c0-0.4,0-0.8-0.1-1.2h-2c0,0.4,0.1,0.8,0.1,1.2c0,5-3.1,9-7,9s-7-4-7-9c0-5,3.1-9,7-9
		c0.8,0,1.5,0.2,2.3,0.5V0.4C17.5,0.1,16.8,0,16,0c-2.4,0-4.7,1.2-6.4,3.3C7.9,5.4,7,8.1,7,11C7,17.1,11,22,16,22z"/>
	<path d="M23,20c-0.6,0-1,0.4-1,1s0.4,1,1,1c3.9,0,7,3.1,7,7c0,0.6-0.4,1-1,1H3c-0.6,0-1-0.4-1-1c0-3.9,3.1-7,7-7c0.6,0,1-0.4,1-1
		s-0.4-1-1-1c-5,0-9,4-9,9c0,1.7,1.3,3,3,3h26c1.7,0,3-1.3,3-3C32,24,28,20,23,20z"/>
</g>
<line class="st0" x1="22.8" y1="0.6" x2="22.8" y2="8.3"/>
<line class="st0" x1="26.6" y1="4.5" x2="18.9" y2="4.5"/>
</svg>
