<?xml version="1.0" encoding="utf-8"?>
<!-- Generator: Adobe Illustrator 19.2.1, SVG Export Plug-In . SVG Version: 6.00 Build 0)  -->
<svg version="1.1" id="Layer_1" xmlns="http://www.w3.org/2000/svg" xmlns:xlink="http://www.w3.org/1999/xlink" x="0px" y="0px"
	 viewBox="0 0 20 20" style="enable-background:new 0 0 20 20;" xml:space="preserve">
<style type="text/css">
	.st0{fill:#FFFFFF;}
</style>
<g>
	<path class="st0" d="M15.9,5.7h-3.5v8.3h-3c-0.3-0.7-1-1.1-1.7-1.1S6.3,13.4,6,14.1H2.6v0.8h3.2c0,1,0.8,1.9,1.9,1.9
		s1.9-0.8,1.9-1.9h4.2c0,1,0.8,1.9,1.9,1.9s1.9-0.8,1.9-1.9H19V9.5L15.9,5.7z M7.7,16c-0.6,0-1.1-0.5-1.1-1.1c0-0.6,0.5-1.1,1.1-1.1
		c0.6,0,1.1,0.5,1.1,1.1C8.8,15.5,8.3,16,7.7,16z M15.7,16c-0.6,0-1.1-0.5-1.1-1.1c0-0.6,0.5-1.1,1.1-1.1c0.6,0,1.1,0.5,1.1,1.1
		C16.8,15.5,16.3,16,15.7,16z M18.2,14.1h-0.8c-0.3-0.7-1-1.1-1.7-1.1c-0.8,0-1.4,0.5-1.7,1.1h-0.8V6.5h2.4l2.7,3.3V14.1L18.2,14.1z
		"/>
	<path class="st0" d="M13.7,7.3v2.6h3.7l-2-2.6H13.7z M14.5,9.1V8H15l0.8,1.1H14.5z"/>
	<path class="st0" d="M3.2,12.7h8.5V4.5H7.1C6.5,3.8,5.5,3.3,4.4,3.3C2.5,3.3,1,4.8,1,6.7c0,1.4,0.9,2.7,2.2,3.2V12.7z M10.9,5.3
		v6.6h-7v-1.8c0.2,0,0.3,0,0.5,0c1.9,0,3.4-1.5,3.4-3.4c0-0.5-0.1-1-0.3-1.4L10.9,5.3L10.9,5.3z M1.8,6.7C1.8,5.2,3,4,4.4,4
		s2.7,1.2,2.7,2.7c0,1.5-1.2,2.7-2.7,2.7S1.8,8.2,1.8,6.7z"/>
	<path class="st0" d="M6.2,5.5C6.1,5.4,6,5.4,5.9,5.4L3.6,7L3.1,6.3C3,6.3,2.9,6.2,2.8,6.3c-0.1,0-0.2,0.2-0.1,0.3l0.4,1.3
		c0,0,0,0.1,0.1,0.1c0.1,0.2,0.4,0.2,0.5,0l0,0l2.4-2.1C6.2,5.7,6.2,5.6,6.2,5.5L6.2,5.5z"/>
</g>
</svg>
