<?xml version="1.0" encoding="utf-8"?>
<!-- Generator: Adobe Illustrator 19.2.1, SVG Export Plug-In . SVG Version: 6.00 Build 0)  -->
<svg version="1.1" id="Layer_1" xmlns="http://www.w3.org/2000/svg" xmlns:xlink="http://www.w3.org/1999/xlink" x="0px" y="0px"
	 viewBox="0 0 160.2 142.4" style="enable-background:new 0 0 160.2 142.4;" xml:space="preserve" fill="#ffffff">
<path d="M161.5,14.1h-35.3v35.3H140v22.3h-34.8V49.4H119V14.1H83.7v35.3h13.8v22.3H62.7V49.4h13.8V14.1H41.2v35.3h13.8v22.3H20.1
	V49.4h13.8V14.1H-1.4v35.3h13.8v22.3v3.9v3.9H77V93H63.2v35.3h35.3V93H84.7V79.5h63v-3.9v-3.9V49.4h13.8V14.1z M91.5,21.8h19.8v19.8
	H91.5V21.8z M48.9,21.8h19.8v19.8H48.9V21.8z M6.4,21.8h19.8v19.8H6.4V21.8z M90.8,120.6H70.9v-19.8h19.8V120.6z M153.8,41.6H134
	V21.8h19.8V41.6z"/>
</svg>
