<?xml version="1.0" encoding="utf-8"?>
<!-- Generator: Adobe Illustrator 19.2.1, SVG Export Plug-In . SVG Version: 6.00 Build 0)  -->
<svg version="1.1" id="Capa_1" xmlns="http://www.w3.org/2000/svg" xmlns:xlink="http://www.w3.org/1999/xlink" x="0px" y="0px"
	 viewBox="0 0 96.9 96.9" style="enable-background:new 0 0 96.9 96.9;" xml:space="preserve" fill="#AAA5B3">
<g>
	<g>
		<path d="M35.8,13h49.8v70.9H35.8c-1.1,0-2,0.9-2,2v7.4c0,1.1,0.9,2,2,2h59.2c1.1,0,2-0.9,2-2V3.7c0-1.1-0.9-2-2-2H35.8
			c-1.1,0-2,0.9-2,2V11C33.8,12.1,34.7,13,35.8,13z"/>
		<path d="M0.6,49.9l26.9,26.9c0.8,0.8,2.1,0.8,2.8,0l6.4-6.4c0.8-0.8,0.8-2,0-2.8L24.6,55.4h52.6c1.1,0,2-0.9,2-2v-9.9
			c0-1.1-0.9-2-2-2H24.6l12.2-12.2c0.8-0.8,0.8-2,0-2.8l-6.4-6.4c-0.4-0.4-0.9-0.6-1.4-0.6c-0.5,0-1,0.2-1.4,0.6L0.6,47.1
			C0.2,47.4,0,47.9,0,48.5C0,49,0.2,49.5,0.6,49.9z"/>
	</g>
</g>
</svg>
