<?xml version="1.0" encoding="utf-8"?>
<!-- Generator: Adobe Illustrator 19.2.1, SVG Export Plug-In . SVG Version: 6.00 Build 0)  -->
<svg version="1.1" id="Layer_1" xmlns="http://www.w3.org/2000/svg" xmlns:xlink="http://www.w3.org/1999/xlink" x="0px" y="0px"
	 viewBox="0 0 150 150" style="enable-background:new 0 0 150 150;" xml:space="preserve" fill="#AAA5B3">
<g>
	<path d="M86.4,45.7H21.9c-1.8,0-3.2-1.4-3.2-3.2c0-1.8,1.4-3.2,3.2-3.2h64.5c1.8,0,3.2,1.4,3.2,3.2C89.6,44.2,88.2,45.7,86.4,45.7
		L86.4,45.7z M86.4,45.7"/>
	<path d="M71,60.1H21.9c-1.8,0-3.2-1.4-3.2-3.2c0-1.8,1.4-3.2,3.2-3.2H71c1.8,0,3.2,1.4,3.2,3.2C74.2,58.7,72.8,60.1,71,60.1
		L71,60.1z M71,60.1"/>
	<path d="M38.1,103.6H21.9c-1.8,0-3.2-1.4-3.2-3.2c0-1.8,1.4-3.2,3.2-3.2h16.3c1.8,0,3.2,1.4,3.2,3.2
		C41.3,102.2,39.9,103.6,38.1,103.6L38.1,103.6z M38.1,103.6"/>
	<g>
		<path d="M31.1,118.1h-9.2c-1.8,0-3.2-1.4-3.2-3.2c0-1.8,1.4-3.2,3.2-3.2h9.2c1.8,0,3.2,1.4,3.2,3.2
			C34.3,116.6,32.9,118.1,31.1,118.1L31.1,118.1z M31.1,118.1"/>
		<path d="M144,15.1l-7.4-5.5c-1.9-1.4-4.1-2-6.4-1.6c-2.3,0.3-4.3,1.5-5.7,3.4c0,0,0,0,0,0l-18.3,24.8V11.6c0-1.8-1.4-3.2-3.2-3.2
			H89.6v-5c0-1.8-1.4-3.2-3.2-3.2c-1.8,0-3.2,1.4-3.2,3.2v5h-9.7v-5c0-1.8-1.4-3.2-3.2-3.2c-1.8,0-3.2,1.4-3.2,3.2v5h-9.7v-5
			c0-1.8-1.4-3.2-3.2-3.2c-1.8,0-3.2,1.4-3.2,3.2v5h-9.7v-5c0-1.8-1.4-3.2-3.2-3.2c-1.8,0-3.2,1.4-3.2,3.2v5h-9.7v-5
			c0-1.8-1.4-3.2-3.2-3.2c-1.8,0-3.2,1.4-3.2,3.2v5H5.2C3.4,8.3,2,9.8,2,11.6v134.2c0,1.8,1.4,3.2,3.2,3.2H103
			c1.8,0,3.2-1.4,3.2-3.2V81.2l39.6-54c0,0,0,0,0,0C148.6,23.4,147.9,18,144,15.1L144,15.1z M99.8,142.5H8.5V14.8h10.2v5
			c0,1.8,1.4,3.2,3.2,3.2c1.8,0,3.2-1.4,3.2-3.2v-5h9.7v5c0,1.8,1.4,3.2,3.2,3.2c1.8,0,3.2-1.4,3.2-3.2v-5h9.7v5
			c0,1.8,1.4,3.2,3.2,3.2c1.8,0,3.2-1.4,3.2-3.2v-5H67v5c0,1.8,1.4,3.2,3.2,3.2c1.8,0,3.2-1.4,3.2-3.2v-5h9.7v5
			c0,1.8,1.4,3.2,3.2,3.2c1.8,0,3.2-1.4,3.2-3.2v-5h10.2V45L82.9,68.2H21.9c-1.8,0-3.2,1.4-3.2,3.2c0,1.8,1.4,3.2,3.2,3.2h56.3
			c0,0-18.4,25.2-18.4,25.2h0c-0.2,0.3-0.4,0.6-0.5,1l-7.4,25.3H21.9c-1.8,0-3.2,1.4-3.2,3.2c0,1.8,1.4,3.2,3.2,3.2l32.6,0v0
			c0.6,0,1.2-0.2,1.7-0.5l24.2-15.6c0.3-0.2,0.6-0.5,0.8-0.8c0,0,18.6-25.6,18.6-25.6V142.5z M64.2,107.1l8.6,6.4l-13,8.4
			L64.2,107.1z M77.8,109.2l-10.9-8.1l51-70l10.9,8.1L77.8,109.2z M132.7,34l-10.9-8.1l3.5-4.7l10.9,8.1L132.7,34z M140.6,23.4
			C140.6,23.4,140.6,23.4,140.6,23.4l-0.6,0.8l-10.9-8.1l0.6-0.8l0,0c0.4-0.5,0.9-0.8,1.4-0.9c0.6-0.1,1.2,0.1,1.6,0.4l7.4,5.5
			C141.1,21,141.3,22.4,140.6,23.4L140.6,23.4z M140.6,23.4"/>
	</g>
</g>
</svg>
