<?xml version="1.0" encoding="utf-8"?>
<!-- Generator: Adobe Illustrator 19.2.1, SVG Export Plug-In . SVG Version: 6.00 Build 0)  -->
<svg version="1.1" id="Layer_1" xmlns="http://www.w3.org/2000/svg" xmlns:xlink="http://www.w3.org/1999/xlink" x="0px" y="0px"
	 viewBox="0 0 15 15" style="enable-background:new 0 0 15 15;" xml:space="preserve">
<style type="text/css">
	.st0{fill:#FFFFFF;}
</style>
<g>
	<path class="st0" d="M14.6,9.2C14.4,9,14.2,9,14,9.1l-4,2.8l-0.9-1.2c-0.1-0.1-0.3-0.2-0.4-0.1c-0.2,0.1-0.3,0.3-0.2,0.5l0.7,2.2
		c0,0.1,0.1,0.2,0.1,0.2c0.2,0.3,0.7,0.3,0.9,0.1l0,0l4.2-3.8C14.6,9.5,14.7,9.3,14.6,9.2L14.6,9.2z"/>
	<path class="st0" d="M7.8,12.1H1.1v-10h9.8v7.7c0,0.2,0.2,0.4,0.4,0.4c0.2,0,0.4-0.2,0.4-0.4V1.7c0-0.2-0.2-0.4-0.4-0.4H0.7
		c-0.2,0-0.4,0.2-0.4,0.4v10.8c0,0.2,0.2,0.4,0.4,0.4h7c0.2,0,0.4-0.2,0.4-0.4C8.2,12.3,8,12.1,7.8,12.1z"/>
	<path class="st0" d="M9,3.7H3c-0.2,0-0.4,0.2-0.4,0.4S2.8,4.4,3,4.4h6c0.2,0,0.4-0.2,0.4-0.4C9.4,3.9,9.2,3.7,9,3.7z"/>
	<path class="st0" d="M9,5.3H3c-0.2,0-0.4,0.2-0.4,0.4S2.8,6,3,6h6c0.2,0,0.4-0.2,0.4-0.4S9.2,5.3,9,5.3z"/>
	<path class="st0" d="M9,6.9H3c-0.2,0-0.4,0.2-0.4,0.4c0,0.2,0.2,0.4,0.4,0.4h6c0.2,0,0.4-0.2,0.4-0.4C9.4,7.1,9.2,6.9,9,6.9z"/>
	<path class="st0" d="M9.4,8.9c0-0.2-0.2-0.4-0.4-0.4H3c-0.2,0-0.4,0.2-0.4,0.4S2.8,9.2,3,9.2h6C9.2,9.2,9.4,9.1,9.4,8.9z"/>
	<path class="st0" d="M3,10c-0.2,0-0.4,0.2-0.4,0.4c0,0.2,0.2,0.4,0.4,0.4h3c0.2,0,0.4-0.2,0.4-0.4C6.4,10.2,6.2,10,6,10H3z"/>
</g>
</svg>
